<svg xmlns="http://www.w3.org/2000/svg" width="1000" height="900" viewBox="0 0 1000 900" font-family="Arial, Helvetica, sans-serif">
  <defs>
    <marker id="arrow" viewBox="0 0 12 12" refX="11" refY="6" markerWidth="12" markerHeight="12" markerUnits="userSpaceOnUse" orient="auto">
      <path d="M1,1 L11,6 L1,11" fill="none" stroke="#1a1a1a" stroke-width="1.4"/>
    </marker>
  </defs>
  <rect width="1000" height="900" fill="#ffffff"/>

  <rect x="270" y="30" width="460" height="840" rx="4" fill="#f7f9f8" stroke="#1a1a1a" stroke-width="1.6"/>
  <text x="500" y="64" text-anchor="middle" font-size="17" font-weight="bold" fill="#1a1a1a">Система за резервации на маси</text>

  <g stroke="#1a1a1a" stroke-width="1.3">
    <line x1="172" y1="262" x2="340" y2="140"/>
    <line x1="172" y1="262" x2="340" y2="350"/>
    <line x1="172" y1="262" x2="340" y2="455"/>

    <line x1="828" y1="477" x2="660" y2="140"/>
    <line x1="828" y1="477" x2="660" y2="350"/>
    <line x1="828" y1="477" x2="660" y2="455"/>
    <line x1="828" y1="477" x2="660" y2="565"/>
    <line x1="828" y1="477" x2="660" y2="670"/>
    <line x1="828" y1="477" x2="660" y2="775"/>
  </g>

  <g stroke="#1a1a1a" stroke-width="1.3" stroke-dasharray="6 4" fill="none">
    <line x1="500" y1="174" x2="500" y2="210" marker-end="url(#arrow)"/>
    <line x1="500" y1="316" x2="500" y2="280" marker-end="url(#arrow)"/>
  </g>
  <g font-size="13" fill="#1a1a1a">
    <text x="512" y="197">«include»</text>
    <text x="512" y="303">«include»</text>
  </g>

  <g fill="#ffffff" stroke="#1a1a1a" stroke-width="1.4">
    <ellipse cx="500" cy="140" rx="160" ry="34"/>
    <ellipse cx="500" cy="245" rx="160" ry="34"/>
    <ellipse cx="500" cy="350" rx="160" ry="34"/>
    <ellipse cx="500" cy="455" rx="160" ry="34"/>
    <ellipse cx="500" cy="565" rx="160" ry="34"/>
    <ellipse cx="500" cy="670" rx="160" ry="34"/>
    <ellipse cx="500" cy="775" rx="160" ry="34"/>
  </g>
  <g font-size="15" fill="#1a1a1a" text-anchor="middle">
    <text x="500" y="145">Запазване на маса</text>
    <text x="500" y="250">Проверка за свободна маса</text>
    <text x="500" y="355">Промяна на резервация</text>
    <text x="500" y="460">Отказване на резервация</text>
    <text x="500" y="570">Преглед на резервациите за деня</text>
    <text x="500" y="675">Потвърждаване на резервация</text>
    <text x="500" y="780">Управление на масите</text>
  </g>

  <g stroke="#1a1a1a" stroke-width="1.6" fill="none">
    <circle cx="135" cy="222" r="17" fill="#ffffff"/>
    <line x1="135" y1="239" x2="135" y2="298"/>
    <line x1="100" y1="258" x2="170" y2="258"/>
    <line x1="135" y1="298" x2="108" y2="343"/>
    <line x1="135" y1="298" x2="162" y2="343"/>

    <circle cx="865" cy="437" r="17" fill="#ffffff"/>
    <line x1="865" y1="454" x2="865" y2="513"/>
    <line x1="830" y1="473" x2="900" y2="473"/>
    <line x1="865" y1="513" x2="838" y2="558"/>
    <line x1="865" y1="513" x2="892" y2="558"/>
  </g>
  <g font-size="15" font-weight="bold" fill="#1a1a1a" text-anchor="middle">
    <text x="135" y="370">Клиент</text>
    <text x="865" y="585">Служител</text>
  </g>
</svg>
